<svg xmlns="http://www.w3.org/2000/svg" xmlns:svg="http://www.w3.org/2000/svg" id="svg8" width="90mm" height="90mm" version="1.1" viewBox="0 0 90 90"><metadata id="metadata5"/><g id="layer1" transform="translate(-58.494824,-100.22817)"><path style="fill:#2a4c7d;fill-opacity:1;stroke-width:2.59842" id="path1003" fill="#000" d="m 82.707479,127.03921 v 2.59838 h -6.49607 v 2.59849 H 69.71534 v 9.09446 h -2.598384 v 7.79526 h 2.598384 v 9.09446 h 6.496069 v 2.59838 h 6.49607 v 2.59849 h 9.094453 V 149.1258 h 23.385778 v 14.29133 h 9.09445 v -2.59849 h 6.49607 v -2.59838 h 6.49607 v -9.09446 h 2.59839 v -7.79526 h -2.59839 v -9.09446 h -6.49607 v -2.59849 h -6.49607 v -2.59838 h -9.09445 v 14.29133 H 91.801932 v -14.29133 z m 2.598383,2.59838 h 3.897582 v 31.18105 h -3.897582 z m 32.480228,0 h 3.89768 v 31.18105 h -3.89768 z m -38.976297,2.59849 h 3.897686 v 25.98418 h -3.897686 z m 45.472367,0 h 3.89758 v 25.98418 h -3.89758 z m -51.968424,2.59839 h 3.897673 v 20.78739 h -3.897673 z m 58.464494,0 h 3.89758 v 20.78739 h -3.89758 z m -38.976298,9.09445 h 23.385778 v 2.5984 H 91.801932 Z"/></g></svg>