<svg xmlns="http://www.w3.org/2000/svg" xmlns:svg="http://www.w3.org/2000/svg" id="svg8" width="89mm" height="89mm" version="1.1" viewBox="0 0 89 89"><metadata id="metadata5"/><g id="layer1" transform="translate(-77.424902,-67.793738)"><path style="fill:#fff;fill-opacity:1;stroke:none;stroke-width:.948329;stroke-opacity:1" id="path28-3" d="M 167.98633 1.4199219 C 160.9544 1.3236681 153.86335 4.5227511 137.98242 13.611328 C 105.5642 32.13751 70.519298 47.210858 37.980469 65.699219 C 17.506866 76.816903 17.001413 77.16049 9.7988281 86.298828 C 8.1030524 88.450358 6.6328125 91.88173 6.6328125 93.882812 L 6.6328125 167.88477 L 6.6328125 241.88477 C 6.6328125 243.87253 9.2998619 248.05782 10.222656 249.81836 C 14.337726 257.66935 17.325855 257.99957 37.015625 269.01172 C 80.668016 293.42818 115.35055 314.08175 158.0625 333.93164 C 161.61265 335.19291 164.81674 335.5583 170.20703 335.31641 C 177.70595 334.97957 178.97845 334.47921 193.74805 326.06836 C 195.33953 325.1621 199.02958 323.15412 201.94727 321.60742 C 234.19661 304.48548 268.88931 285.37698 304.42383 266.38281 C 307.21017 264.69469 311.69345 261.88128 313.12109 260.91406 C 318.6386 257.176 323.16782 252.21648 326.93945 246.82812 C 328.1839 245.05024 329.74414 243.12325 329.74414 240.95312 L 329.74414 167.41797 L 329.74414 93.882812 C 329.74414 91.795648 327.92617 88.700174 326.47461 86.396484 C 324.84526 83.810573 322.42061 81.269809 320.48047 79.458984 C 315.03893 74.380195 182.08079 4.2218116 175.32031 2.5195312 C 172.66604 1.851187 170.3303 1.4520065 167.98633 1.4199219 z M 97.138672 106.01953 L 128.22266 106.01953 L 128.22266 154.86719 L 208.1543 154.86719 L 208.1543 106.01953 L 239.24023 106.01953 L 239.24023 114.90039 L 261.44336 114.90039 L 261.44336 123.7832 L 283.64648 123.7832 L 283.64648 154.86719 L 292.52734 154.86719 L 292.52734 181.51172 L 283.64648 181.51172 L 283.64648 212.5957 L 261.44336 212.5957 L 261.44336 221.47656 L 239.24023 221.47656 L 239.24023 230.35742 L 208.1543 230.35742 L 208.1543 181.51172 L 128.22266 181.51172 L 128.22266 230.35742 L 97.138672 230.35742 L 97.138672 221.47656 L 74.935547 221.47656 L 74.935547 212.5957 L 52.732422 212.5957 L 52.732422 181.51172 L 43.851562 181.51172 L 43.851562 154.86719 L 52.732422 154.86719 L 52.732422 123.7832 L 74.935547 123.7832 L 74.935547 114.90039 L 97.138672 114.90039 L 97.138672 106.01953 z M 106.01953 114.90039 L 106.01953 221.47656 L 119.3418 221.47656 L 119.3418 114.90039 L 106.01953 114.90039 z M 217.03516 114.90039 L 217.03516 221.47656 L 230.35742 221.47656 L 230.35742 114.90039 L 217.03516 114.90039 z M 83.816406 123.7832 L 83.816406 212.5957 L 97.138672 212.5957 L 97.138672 123.7832 L 83.816406 123.7832 z M 239.24023 123.7832 L 239.24023 212.5957 L 252.56055 212.5957 L 252.56055 123.7832 L 239.24023 123.7832 z M 61.613281 132.66406 L 61.613281 203.71484 L 74.935547 203.71484 L 74.935547 132.66406 L 61.613281 132.66406 z M 261.44336 132.66406 L 261.44336 203.71484 L 274.76367 203.71484 L 274.76367 132.66406 L 261.44336 132.66406 z M 128.22266 163.74805 L 128.22266 172.62891 L 208.1543 172.62891 L 208.1543 163.74805 L 128.22266 163.74805 z" transform="matrix(0.26458333,0,0,0.26458333,77.424902,67.793738)"/></g></svg>