<svg xmlns="http://www.w3.org/2000/svg" xmlns:xlink="http://www.w3.org/1999/xlink" width="1630pt" height="773pt" viewBox="0 0 1629.87 773"><g id="graph0" class="graph" transform="scale(1 1) rotate(0) translate(4 769)"><title>model_graph</title><polygon fill="#fff" stroke="transparent" points="-4 4 -4 -769 1625.87 -769 1625.87 4 -4 4"/><g id="clust1" class="cluster"><title>cluster_wger_manager</title><path fill="none" stroke="#698b22" d="M191.91,-73C191.91,-73 1050.87,-73 1050.87,-73 1056.87,-73 1062.87,-79 1062.87,-85 1062.87,-85 1062.87,-753 1062.87,-753 1062.87,-759 1056.87,-765 1050.87,-765 1050.87,-765 191.91,-765 191.91,-765 185.91,-765 179.91,-759 179.91,-753 179.91,-753 179.91,-85 179.91,-85 179.91,-79 185.91,-73 191.91,-73"/><text x="580.41" y="-749.5" font-family="Roboto" font-size="10" font-weight="bold" text-anchor="start">wger.manager</text></g><g id="node1" class="node"><title>wger_manager_models_Workout</title><polygon fill="#fff" stroke="transparent" points="569.91 -98 569.91 -173 763.91 -173 763.91 -98 569.91 -98"/><polygon fill="#1b563f" stroke="transparent" points="570.91 -150.5 570.91 -171.5 762.91 -171.5 762.91 -150.5 570.91 -150.5"/><text x="627.41" y="-159.5" fill="#fff" font-family="Roboto" font-size="10" font-weight="bold" text-anchor="start">Workout</text><text x="586.91" y="-143.1" font-family="Roboto" font-size="8" font-weight="bold" text-anchor="start">id</text><text x="675.91" y="-143.1" font-family="Roboto" font-size="8" font-weight="bold" text-anchor="start">AutoField</text><text x="586.91" y="-130.1" font-family="Roboto" font-size="8" font-weight="bold" text-anchor="start">user</text><text x="675.91" y="-130.1" font-family="Roboto" font-size="8" font-weight="bold" text-anchor="start">ForeignKey (id)</text><text x="586.91" y="-117.1" fill="#7b7b7b" font-family="Roboto" font-size="8" text-anchor="start">comment</text><text x="675.91" y="-117.1" fill="#7b7b7b" font-family="Roboto" font-size="8" text-anchor="start">CharField</text><text x="586.91" y="-104.1" fill="#7b7b7b" font-family="Roboto" font-size="8" text-anchor="start">creation_date</text><text x="675.91" y="-104.1" fill="#7b7b7b" font-family="Roboto" font-size="8" text-anchor="start">DateField</text><polygon fill="none" stroke="#000" points="569.91 -98 569.91 -173 763.91 -173 763.91 -98 569.91 -98"/></g><g id="node9" class="node"><title>django_contrib_auth_models_User</title><polygon fill="#fff" stroke="transparent" points="782.91 -7.5 782.91 -28.5 828.91 -28.5 828.91 -7.5 782.91 -7.5"/><polygon fill="#1b563f" stroke="transparent" points="782.91 -7 782.91 -28 828.91 -28 828.91 -7 782.91 -7"/><text x="791.91" y="-15.4" fill="#fff" font-family="Roboto" font-size="12" text-anchor="start">User</text></g><g id="edge8" class="edge"><title>wger_manager_models_Workout-&gt;django_contrib_auth_models_User</title><path fill="none" stroke="#000" d="M722.11,-88.63C744.3,-70.2 768.52,-50.07 785.18,-36.22"/><ellipse cx="719" cy="-91.22" fill="#000" stroke="#000" rx="4" ry="4"/><text x="791.91" y="-56.6" font-family="Roboto" font-size="8" text-anchor="middle">user (workout)</text></g><g id="node2" class="node"><title>wger_manager_models_Schedule</title><polygon fill="#fff" stroke="transparent" points="276.41 -85 276.41 -186 455.41 -186 455.41 -85 276.41 -85"/><polygon fill="#1b563f" stroke="transparent" points="277.91 -163.5 277.91 -184.5 454.91 -184.5 454.91 -163.5 277.91 -163.5"/><text x="324.91" y="-172.5" fill="#fff" font-family="Roboto" font-size="10" font-weight="bold" text-anchor="start">Schedule</text><text x="293.91" y="-156.1" font-family="Roboto" font-size="8" font-weight="bold" text-anchor="start">id</text><text x="367.91" y="-156.1" font-family="Roboto" font-size="8" font-weight="bold" text-anchor="start">AutoField</text><text x="293.91" y="-143.1" font-family="Roboto" font-size="8" font-weight="bold" text-anchor="start">user</text><text x="367.91" y="-143.1" font-family="Roboto" font-size="8" font-weight="bold" text-anchor="start">ForeignKey (id)</text><text x="293.91" y="-130.1" font-family="Roboto" font-size="8" text-anchor="start">is_active</text><text x="367.91" y="-130.1" font-family="Roboto" font-size="8" text-anchor="start">BooleanField</text><text x="293.91" y="-117.1" font-family="Roboto" font-size="8" text-anchor="start">is_loop</text><text x="367.91" y="-117.1" font-family="Roboto" font-size="8" text-anchor="start">BooleanField</text><text x="293.91" y="-104.1" font-family="Roboto" font-size="8" text-anchor="start">name</text><text x="367.91" y="-104.1" font-family="Roboto" font-size="8" text-anchor="start">CharField</text><text x="293.91" y="-91.1" font-family="Roboto" font-size="8" text-anchor="start">start_date</text><text x="367.91" y="-91.1" font-family="Roboto" font-size="8" text-anchor="start">Html5DateField</text><polygon fill="none" stroke="#000" points="276.41 -85 276.41 -186 455.41 -186 455.41 -85 276.41 -85"/></g><g id="edge9" class="edge"><title>wger_manager_models_Schedule-&gt;django_contrib_auth_models_User</title><path fill="none" stroke="#000" d="M471.57,-97.56C497.97,-88.94 526.34,-80.18 552.91,-73 632.04,-51.61 726.92,-33.27 774.89,-24.51"/><ellipse cx="467.62" cy="-98.85" fill="#000" stroke="#000" rx="4" ry="4"/><text x="661.41" y="-56.6" font-family="Roboto" font-size="8" text-anchor="middle">user (schedule)</text></g><g id="node3" class="node"><title>wger_manager_models_ScheduleStep</title><polygon fill="#fff" stroke="transparent" points="195.91 -271.5 195.91 -359.5 373.91 -359.5 373.91 -271.5 195.91 -271.5"/><polygon fill="#1b563f" stroke="transparent" points="196.91 -337.5 196.91 -358.5 372.91 -358.5 372.91 -337.5 196.91 -337.5"/><text x="229.91" y="-346.5" fill="#fff" font-family="Roboto" font-size="10" font-weight="bold" text-anchor="start">ScheduleStep</text><text x="212.91" y="-330.1" font-family="Roboto" font-size="8" font-weight="bold" text-anchor="start">id</text><text x="285.91" y="-330.1" font-family="Roboto" font-size="8" font-weight="bold" text-anchor="start">AutoField</text><text x="212.91" y="-317.1" font-family="Roboto" font-size="8" font-weight="bold" text-anchor="start">schedule</text><text x="285.91" y="-317.1" font-family="Roboto" font-size="8" font-weight="bold" text-anchor="start">ForeignKey (id)</text><text x="212.91" y="-304.1" font-family="Roboto" font-size="8" font-weight="bold" text-anchor="start">workout</text><text x="285.91" y="-304.1" font-family="Roboto" font-size="8" font-weight="bold" text-anchor="start">ForeignKey (id)</text><text x="212.91" y="-291.1" font-family="Roboto" font-size="8" text-anchor="start">duration</text><text x="285.91" y="-291.1" font-family="Roboto" font-size="8" text-anchor="start">IntegerField</text><text x="212.91" y="-278.1" font-family="Roboto" font-size="8" text-anchor="start">order</text><text x="285.91" y="-278.1" font-family="Roboto" font-size="8" text-anchor="start">IntegerField</text><polygon fill="none" stroke="#000" points="195.91 -271.5 195.91 -359.5 373.91 -359.5 373.91 -271.5 195.91 -271.5"/></g><g id="edge1" class="edge"><title>wger_manager_models_ScheduleStep-&gt;wger_manager_models_Workout</title><path fill="none" stroke="#000" d="M351.97,-262.4C364.99,-252.94 378.69,-243.42 391.91,-235 443.78,-201.97 508.2,-178.13 561.65,-162.19"/><ellipse cx="348.46" cy="-264.97" fill="#000" stroke="#000" rx="4" ry="4"/><text x="489.91" y="-210.6" font-family="Roboto" font-size="8" text-anchor="middle">workout (schedulestep)</text></g><g id="edge2" class="edge"><title>wger_manager_models_ScheduleStep-&gt;wger_manager_models_Schedule</title><path fill="none" stroke="#000" d="M276.98,-259.14C276.73,-242.1 278.79,-223.7 285.91,-208 288.75,-201.72 292.45,-195.77 296.68,-190.17"/><ellipse cx="277.14" cy="-263.38" fill="#000" stroke="#000" rx="4" ry="4"/><text x="337.91" y="-210.6" font-family="Roboto" font-size="8" text-anchor="middle">schedule (schedulestep)</text></g><g id="node4" class="node"><title>wger_manager_models_Day</title><polygon fill="#fff" stroke="transparent" points="625.41 -284.5 625.41 -346.5 808.41 -346.5 808.41 -284.5 625.41 -284.5"/><polygon fill="#1b563f" stroke="transparent" points="626.91 -324.5 626.91 -345.5 807.91 -345.5 807.91 -324.5 626.91 -324.5"/><text x="690.91" y="-333.5" fill="#fff" font-family="Roboto" font-size="10" font-weight="bold" text-anchor="start">Day</text><text x="642.91" y="-317.1" font-family="Roboto" font-size="8" font-weight="bold" text-anchor="start">id</text><text x="720.91" y="-317.1" font-family="Roboto" font-size="8" font-weight="bold" text-anchor="start">AutoField</text><text x="642.91" y="-304.1" font-family="Roboto" font-size="8" font-weight="bold" text-anchor="start">training</text><text x="720.91" y="-304.1" font-family="Roboto" font-size="8" font-weight="bold" text-anchor="start">ForeignKey (id)</text><text x="642.91" y="-291.1" font-family="Roboto" font-size="8" text-anchor="start">description</text><text x="720.91" y="-291.1" font-family="Roboto" font-size="8" text-anchor="start">CharField</text><polygon fill="none" stroke="#000" points="625.41 -284.5 625.41 -346.5 808.41 -346.5 808.41 -284.5 625.41 -284.5"/></g><g id="edge3" class="edge"><title>wger_manager_models_Day-&gt;wger_manager_models_Workout</title><path fill="none" stroke="#000" d="M691.02,-273.34C681.86,-256.53 672.66,-236.49 667.91,-217 664.8,-204.24 663.84,-189.99 663.87,-177.08"/><ellipse cx="692.98" cy="-276.85" fill="#000" stroke="#000" rx="4" ry="4"/><text x="696.91" y="-210.6" font-family="Roboto" font-size="8" text-anchor="middle">training (day)</text></g><g id="node10" class="node"><title>wger_core_models_DaysOfWeek</title><polygon fill="#fff" stroke="transparent" points="1078.87 -125 1078.87 -146 1174.87 -146 1174.87 -125 1078.87 -125"/><polygon fill="#1b563f" stroke="transparent" points="1078.87 -124.5 1078.87 -145.5 1174.87 -145.5 1174.87 -124.5 1078.87 -124.5"/><text x="1088.37" y="-132.9" fill="#fff" font-family="Roboto" font-size="12" text-anchor="start">DaysOfWeek</text></g><g id="edge10" class="edge"><title>wger_manager_models_Day-&gt;wger_core_models_DaysOfWeek</title><path fill="none" stroke="#000" d="M761.38,-275.1C780.13,-260.41 802.93,-244.92 825.91,-235 925.95,-191.83 969.1,-238.02 1066.87,-190 1081.87,-182.63 1096.07,-170.44 1106.77,-159.56"/><ellipse cx="757.79" cy="-277.97" fill="#000" stroke="#000" rx="4" ry="4"/><ellipse cx="1109.61" cy="-156.58" fill="#000" stroke="#000" rx="4" ry="4"/><text x="1033.41" y="-210.6" font-family="Roboto" font-size="8" text-anchor="middle">day (day)</text></g><g id="node5" class="node"><title>wger_manager_models_Set</title><polygon fill="#fff" stroke="transparent" points="621.41 -445 621.41 -520 812.41 -520 812.41 -445 621.41 -445"/><polygon fill="#1b563f" stroke="transparent" points="622.91 -497.5 622.91 -518.5 811.91 -518.5 811.91 -497.5 622.91 -497.5"/><text x="692.41" y="-506.5" fill="#fff" font-family="Roboto" font-size="10" font-weight="bold" text-anchor="start">Set</text><text x="638.91" y="-490.1" font-family="Roboto" font-size="8" font-weight="bold" text-anchor="start">id</text><text x="724.91" y="-490.1" font-family="Roboto" font-size="8" font-weight="bold" text-anchor="start">AutoField</text><text x="638.91" y="-477.1" font-family="Roboto" font-size="8" font-weight="bold" text-anchor="start">exerciseday</text><text x="724.91" y="-477.1" font-family="Roboto" font-size="8" font-weight="bold" text-anchor="start">ForeignKey (id)</text><text x="638.91" y="-464.1" fill="#7b7b7b" font-family="Roboto" font-size="8" text-anchor="start">order</text><text x="724.91" y="-464.1" fill="#7b7b7b" font-family="Roboto" font-size="8" text-anchor="start">IntegerField</text><text x="638.91" y="-451.1" font-family="Roboto" font-size="8" text-anchor="start">sets</text><text x="724.91" y="-451.1" font-family="Roboto" font-size="8" text-anchor="start">IntegerField</text><polygon fill="none" stroke="#000" points="621.41 -445 621.41 -520 812.41 -520 812.41 -445 621.41 -445"/></g><g id="edge4" class="edge"><title>wger_manager_models_Set-&gt;wger_manager_models_Day</title><path fill="none" stroke="#000" d="M716.91,-432.38C716.91,-406.07 716.91,-374.31 716.91,-350.7"/><ellipse cx="716.91" cy="-436.71" fill="#000" stroke="#000" rx="4" ry="4"/><text x="753.41" y="-416.6" font-family="Roboto" font-size="8" text-anchor="middle">exerciseday (set)</text></g><g id="node11" class="node"><title>wger_exercises_models_Exercise</title><polygon fill="#fff" stroke="transparent" points="73.91 -125 73.91 -146 141.91 -146 141.91 -125 73.91 -125"/><polygon fill="#1b563f" stroke="transparent" points="73.91 -124.5 73.91 -145.5 141.91 -145.5 141.91 -124.5 73.91 -124.5"/><text x="82.91" y="-132.9" fill="#fff" font-family="Roboto" font-size="12" text-anchor="start">Exercise</text></g><g id="edge11" class="edge"><title>wger_manager_models_Set-&gt;wger_exercises_models_Exercise</title><path fill="none" stroke="#000" d="M604.88,-481.97C449.36,-480.01 179.99,-466.21 116.91,-396 57.84,-330.25 83.98,-212.98 99.45,-161.69"/><ellipse cx="609.12" cy="-482.02" fill="#000" stroke="#000" rx="4" ry="4"/><ellipse cx="100.73" cy="-157.57" fill="#000" stroke="#000" rx="4" ry="4"/><text x="147.91" y="-313.6" font-family="Roboto" font-size="8" text-anchor="middle">exercises (set)</text></g><g id="node6" class="node"><title>wger_manager_models_Setting</title><polygon fill="#fff" stroke="transparent" points="728.41 -573 728.41 -726 933.41 -726 933.41 -573 728.41 -573"/><polygon fill="#1b563f" stroke="transparent" points="729.91 -703.5 729.91 -724.5 932.91 -724.5 932.91 -703.5 729.91 -703.5"/><text x="794.91" y="-712.5" fill="#fff" font-family="Roboto" font-size="10" font-weight="bold" text-anchor="start">Setting</text><text x="745.91" y="-696.1" font-family="Roboto" font-size="8" font-weight="bold" text-anchor="start">id</text><text x="845.91" y="-696.1" font-family="Roboto" font-size="8" font-weight="bold" text-anchor="start">AutoField</text><text x="745.91" y="-683.1" font-family="Roboto" font-size="8" font-weight="bold" text-anchor="start">exercise</text><text x="845.91" y="-683.1" font-family="Roboto" font-size="8" font-weight="bold" text-anchor="start">ForeignKey (id)</text><text x="745.91" y="-670.1" font-family="Roboto" font-size="8" font-weight="bold" text-anchor="start">repetition_unit</text><text x="845.91" y="-670.1" font-family="Roboto" font-size="8" font-weight="bold" text-anchor="start">ForeignKey (id)</text><text x="745.91" y="-657.1" font-family="Roboto" font-size="8" font-weight="bold" text-anchor="start">set</text><text x="845.91" y="-657.1" font-family="Roboto" font-size="8" font-weight="bold" text-anchor="start">ForeignKey (id)</text><text x="745.91" y="-644.1" font-family="Roboto" font-size="8" font-weight="bold" text-anchor="start">weight_unit</text><text x="845.91" y="-644.1" font-family="Roboto" font-size="8" font-weight="bold" text-anchor="start">ForeignKey (id)</text><text x="745.91" y="-631.1" fill="#7b7b7b" font-family="Roboto" font-size="8" text-anchor="start">comment</text><text x="845.91" y="-631.1" fill="#7b7b7b" font-family="Roboto" font-size="8" text-anchor="start">CharField</text><text x="745.91" y="-618.1" fill="#7b7b7b" font-family="Roboto" font-size="8" text-anchor="start">order</text><text x="845.91" y="-618.1" fill="#7b7b7b" font-family="Roboto" font-size="8" text-anchor="start">IntegerField</text><text x="745.91" y="-605.1" font-family="Roboto" font-size="8" text-anchor="start">reps</text><text x="845.91" y="-605.1" font-family="Roboto" font-size="8" text-anchor="start">IntegerField</text><text x="745.91" y="-592.1" fill="#7b7b7b" font-family="Roboto" font-size="8" text-anchor="start">rir</text><text x="845.91" y="-592.1" fill="#7b7b7b" font-family="Roboto" font-size="8" text-anchor="start">CharField</text><text x="745.91" y="-579.1" fill="#7b7b7b" font-family="Roboto" font-size="8" text-anchor="start">weight</text><text x="845.91" y="-579.1" fill="#7b7b7b" font-family="Roboto" font-size="8" text-anchor="start">DecimalField</text><polygon fill="none" stroke="#000" points="728.41 -573 728.41 -726 933.41 -726 933.41 -573 728.41 -573"/></g><g id="edge5" class="edge"><title>wger_manager_models_Setting-&gt;wger_manager_models_Set</title><path fill="none" stroke="#000" d="M771.15,-562C762.03,-548.81 753.02,-535.76 745.03,-524.2"/><ellipse cx="773.64" cy="-565.61" fill="#000" stroke="#000" rx="4" ry="4"/><text x="785.91" y="-544.6" font-family="Roboto" font-size="8" text-anchor="middle">set (setting)</text></g><g id="edge12" class="edge"><title>wger_manager_models_Setting-&gt;wger_exercises_models_Exercise</title><path fill="none" stroke="#000" d="M712.22,-631.12C516.78,-599.8 140.99,-527.31 62.91,-423 0,-338.96 69.42,-201.77 97.34,-153.75"/><ellipse cx="716.3" cy="-631.77" fill="#000" stroke="#000" rx="4" ry="4"/><text x="99.41" y="-416.6" font-family="Roboto" font-size="8" text-anchor="middle">exercise (setting)</text></g><g id="node12" class="node"><title>wger_core_models_RepetitionUnit</title><polygon fill="#fff" stroke="transparent" points="1367.87 -125 1367.87 -146 1471.87 -146 1471.87 -125 1367.87 -125"/><polygon fill="#1b563f" stroke="transparent" points="1367.87 -124.5 1367.87 -145.5 1471.87 -145.5 1471.87 -124.5 1367.87 -124.5"/><text x="1377.37" y="-132.9" fill="#fff" font-family="Roboto" font-size="12" text-anchor="start">RepetitionUnit</text></g><g id="edge13" class="edge"><title>wger_manager_models_Setting-&gt;wger_core_models_RepetitionUnit</title><path fill="none" stroke="#000" d="M949.46,-605.5C1097.27,-544.69 1343.17,-418.02 1447.87,-217 1458.67,-196.27 1445.47,-170.46 1433.87,-153.74"/><ellipse cx="945.33" cy="-607.19" fill="#000" stroke="#000" rx="4" ry="4"/><text x="1326.37" y="-416.6" font-family="Roboto" font-size="8" text-anchor="middle">repetition_unit (setting)</text></g><g id="node13" class="node"><title>wger_core_models_WeightUnit</title><polygon fill="#fff" stroke="transparent" points="1529.87 -125 1529.87 -146 1613.87 -146 1613.87 -125 1529.87 -125"/><polygon fill="#1b563f" stroke="transparent" points="1529.87 -124.5 1529.87 -145.5 1613.87 -145.5 1613.87 -124.5 1529.87 -124.5"/><text x="1538.87" y="-132.9" fill="#fff" font-family="Roboto" font-size="12" text-anchor="start">WeightUnit</text></g><g id="edge14" class="edge"><title>wger_manager_models_Setting-&gt;wger_core_models_WeightUnit</title><path fill="none" stroke="#000" d="M949.48,-625.04C1070.37,-595.84 1256.97,-535.49 1379.87,-423 1471.97,-338.71 1541.47,-201.68 1564.07,-153.72"/><ellipse cx="945.5" cy="-625.99" fill="#000" stroke="#000" rx="4" ry="4"/><text x="1430.37" y="-416.6" font-family="Roboto" font-size="8" text-anchor="middle">weight_unit (setting)</text></g><g id="node7" class="node"><title>wger_manager_models_WorkoutLog</title><polygon fill="#fff" stroke="transparent" points="842.41 -239 842.41 -392 1047.41 -392 1047.41 -239 842.41 -239"/><polygon fill="#1b563f" stroke="transparent" points="843.91 -369.5 843.91 -390.5 1046.91 -390.5 1046.91 -369.5 843.91 -369.5"/><text x="895.91" y="-378.5" fill="#fff" font-family="Roboto" font-size="10" font-weight="bold" text-anchor="start">WorkoutLog</text><text x="859.91" y="-362.1" font-family="Roboto" font-size="8" font-weight="bold" text-anchor="start">id</text><text x="959.91" y="-362.1" font-family="Roboto" font-size="8" font-weight="bold" text-anchor="start">AutoField</text><text x="859.91" y="-349.1" font-family="Roboto" font-size="8" font-weight="bold" text-anchor="start">exercise</text><text x="959.91" y="-349.1" font-family="Roboto" font-size="8" font-weight="bold" text-anchor="start">ForeignKey (id)</text><text x="859.91" y="-336.1" font-family="Roboto" font-size="8" font-weight="bold" text-anchor="start">repetition_unit</text><text x="959.91" y="-336.1" font-family="Roboto" font-size="8" font-weight="bold" text-anchor="start">ForeignKey (id)</text><text x="859.91" y="-323.1" font-family="Roboto" font-size="8" font-weight="bold" text-anchor="start">user</text><text x="959.91" y="-323.1" font-family="Roboto" font-size="8" font-weight="bold" text-anchor="start">ForeignKey (id)</text><text x="859.91" y="-310.1" font-family="Roboto" font-size="8" font-weight="bold" text-anchor="start">weight_unit</text><text x="959.91" y="-310.1" font-family="Roboto" font-size="8" font-weight="bold" text-anchor="start">ForeignKey (id)</text><text x="859.91" y="-297.1" font-family="Roboto" font-size="8" font-weight="bold" text-anchor="start">workout</text><text x="959.91" y="-297.1" font-family="Roboto" font-size="8" font-weight="bold" text-anchor="start">ForeignKey (id)</text><text x="859.91" y="-284.1" font-family="Roboto" font-size="8" text-anchor="start">date</text><text x="959.91" y="-284.1" font-family="Roboto" font-size="8" text-anchor="start">Html5DateField</text><text x="859.91" y="-271.1" font-family="Roboto" font-size="8" text-anchor="start">reps</text><text x="959.91" y="-271.1" font-family="Roboto" font-size="8" text-anchor="start">IntegerField</text><text x="859.91" y="-258.1" fill="#7b7b7b" font-family="Roboto" font-size="8" text-anchor="start">rir</text><text x="959.91" y="-258.1" fill="#7b7b7b" font-family="Roboto" font-size="8" text-anchor="start">CharField</text><text x="859.91" y="-245.1" font-family="Roboto" font-size="8" text-anchor="start">weight</text><text x="959.91" y="-245.1" font-family="Roboto" font-size="8" text-anchor="start">DecimalField</text><polygon fill="none" stroke="#000" points="842.41 -239 842.41 -392 1047.41 -392 1047.41 -239 842.41 -239"/></g><g id="edge6" class="edge"><title>wger_manager_models_WorkoutLog-&gt;wger_manager_models_Workout</title><path fill="none" stroke="#000" d="M827.19,-235.82C826.76,-235.55 826.33,-235.27 825.91,-235 795.87,-215.67 762.29,-194.77 733.76,-177.21"/><ellipse cx="830.78" cy="-238.15" fill="#000" stroke="#000" rx="4" ry="4"/><text x="839.91" y="-210.6" font-family="Roboto" font-size="8" text-anchor="middle">workout (workoutlog)</text></g><g id="edge15" class="edge"><title>wger_manager_models_WorkoutLog-&gt;django_contrib_auth_models_User</title><path fill="none" stroke="#000" d="M1063.47,-284.59C1112.07,-265.86 1163.47,-236.19 1191.87,-190 1219.17,-145.72 1226.07,-112.23 1191.87,-73 1145.77,-19.97 920.31,-17.45 836.96,-18.38"/><ellipse cx="1059.42" cy="-286.1" fill="#000" stroke="#000" rx="4" ry="4"/><text x="1252.37" y="-133.6" font-family="Roboto" font-size="8" text-anchor="middle">user (workoutlog)</text></g><g id="edge16" class="edge"><title>wger_manager_models_WorkoutLog-&gt;wger_exercises_models_Exercise</title><path fill="none" stroke="#000" d="M826.42,-235.16C826.25,-235.11 826.08,-235.05 825.91,-235 758.24,-213.43 252.01,-245.41 186.91,-217 156.76,-203.84 132.16,-173.29 118.81,-153.83"/><ellipse cx="830.29" cy="-236.52" fill="#000" stroke="#000" rx="4" ry="4"/><text x="232.41" y="-210.6" font-family="Roboto" font-size="8" text-anchor="middle">exercise (workoutlog)</text></g><g id="edge17" class="edge"><title>wger_manager_models_WorkoutLog-&gt;wger_core_models_RepetitionUnit</title><path fill="none" stroke="#000" d="M1063.37,-265.69C1130.07,-238.22 1200.97,-209.17 1204.87,-208 1245.27,-195.96 1257.67,-202.53 1297.87,-190 1328.87,-180.36 1362.37,-165.27 1386.47,-153.56"/><ellipse cx="1059.37" cy="-267.34" fill="#000" stroke="#000" rx="4" ry="4"/><text x="1262.87" y="-210.6" font-family="Roboto" font-size="8" text-anchor="middle">repetition_unit (workoutlog)</text></g><g id="edge18" class="edge"><title>wger_manager_models_WorkoutLog-&gt;wger_core_models_WeightUnit</title><path fill="none" stroke="#000" d="M1063.47,-299.5C1176.17,-282.45 1348.87,-249.01 1488.87,-190 1511.17,-180.61 1534.07,-165.34 1550.17,-153.51"/><ellipse cx="1059.43" cy="-300.11" fill="#000" stroke="#000" rx="4" ry="4"/><text x="1483.87" y="-210.6" font-family="Roboto" font-size="8" text-anchor="middle">weight_unit (workoutlog)</text></g><g id="node8" class="node"><title>wger_manager_models_WorkoutSession</title><polygon fill="#fff" stroke="transparent" points="408.41 -252 408.41 -379 591.41 -379 591.41 -252 408.41 -252"/><polygon fill="#1b563f" stroke="transparent" points="409.91 -356.5 409.91 -377.5 590.91 -377.5 590.91 -356.5 409.91 -356.5"/><text x="439.41" y="-365.5" fill="#fff" font-family="Roboto" font-size="10" font-weight="bold" text-anchor="start">WorkoutSession</text><text x="425.91" y="-349.1" font-family="Roboto" font-size="8" font-weight="bold" text-anchor="start">id</text><text x="503.91" y="-349.1" font-family="Roboto" font-size="8" font-weight="bold" text-anchor="start">AutoField</text><text x="425.91" y="-336.1" font-family="Roboto" font-size="8" font-weight="bold" text-anchor="start">user</text><text x="503.91" y="-336.1" font-family="Roboto" font-size="8" font-weight="bold" text-anchor="start">ForeignKey (id)</text><text x="425.91" y="-323.1" font-family="Roboto" font-size="8" font-weight="bold" text-anchor="start">workout</text><text x="503.91" y="-323.1" font-family="Roboto" font-size="8" font-weight="bold" text-anchor="start">ForeignKey (id)</text><text x="425.91" y="-310.1" font-family="Roboto" font-size="8" text-anchor="start">date</text><text x="503.91" y="-310.1" font-family="Roboto" font-size="8" text-anchor="start">Html5DateField</text><text x="425.91" y="-297.1" font-family="Roboto" font-size="8" text-anchor="start">impression</text><text x="503.91" y="-297.1" font-family="Roboto" font-size="8" text-anchor="start">CharField</text><text x="425.91" y="-284.1" fill="#7b7b7b" font-family="Roboto" font-size="8" text-anchor="start">notes</text><text x="503.91" y="-284.1" fill="#7b7b7b" font-family="Roboto" font-size="8" text-anchor="start">TextField</text><text x="425.91" y="-271.1" fill="#7b7b7b" font-family="Roboto" font-size="8" text-anchor="start">time_end</text><text x="503.91" y="-271.1" fill="#7b7b7b" font-family="Roboto" font-size="8" text-anchor="start">TimeField</text><text x="425.91" y="-258.1" fill="#7b7b7b" font-family="Roboto" font-size="8" text-anchor="start">time_start</text><text x="503.91" y="-258.1" fill="#7b7b7b" font-family="Roboto" font-size="8" text-anchor="start">TimeField</text><polygon fill="none" stroke="#000" points="408.41 -252 408.41 -379 591.41 -379 591.41 -252 408.41 -252"/></g><g id="edge7" class="edge"><title>wger_manager_models_WorkoutSession-&gt;wger_manager_models_Workout</title><path fill="none" stroke="#000" d="M529.98,-240.58C536.54,-228.97 544.18,-217.63 552.91,-208 563.34,-196.49 576.05,-186.13 589.14,-177.11"/><ellipse cx="527.95" cy="-244.32" fill="#000" stroke="#000" rx="4" ry="4"/><text x="607.41" y="-210.6" font-family="Roboto" font-size="8" text-anchor="middle">workout (workoutsession)</text></g><g id="edge19" class="edge"><title>wger_manager_models_WorkoutSession-&gt;django_contrib_auth_models_User</title><path fill="none" stroke="#000" d="M588.82,-244C595.41,-240.56 602.13,-237.51 608.91,-235 657,-217.22 804.1,-254.64 838.91,-217 886.11,-165.96 839.7,-74.22 816.92,-36.22"/><ellipse cx="585.24" cy="-245.95" fill="#000" stroke="#000" rx="4" ry="4"/><text x="905.91" y="-133.6" font-family="Roboto" font-size="8" text-anchor="middle">user (workoutsession)</text></g></g></svg>