<svg xmlns="http://www.w3.org/2000/svg" xmlns:xlink="http://www.w3.org/1999/xlink" width="1510pt" height="1176" viewBox="0 0 1510 882"><g id="graph0" class="graph" transform="scale(1 1) rotate(0) translate(4 878)"><title>model_graph</title><polygon fill="#fff" stroke="transparent" points="-4 4 -4 -878 1506 -878 1506 4 -4 4"/><g id="clust1" class="cluster"><title>cluster_wger_config</title><path fill="none" stroke="#698b22" d="M12,-305.5C12,-305.5 460,-305.5 460,-305.5 466,-305.5 472,-311.5 472,-317.5 472,-317.5 472,-432.5 472,-432.5 472,-438.5 466,-444.5 460,-444.5 460,-444.5 12,-444.5 12,-444.5 6,-444.5 0,-438.5 0,-432.5 0,-432.5 0,-317.5 0,-317.5 0,-311.5 6,-305.5 12,-305.5"/><text x="203" y="-429" font-family="Roboto" font-size="10" font-weight="bold" text-anchor="start">wger.config</text></g><g id="clust2" class="cluster"><title>cluster_wger_nutrition</title><path fill="none" stroke="#698b22" d="M605,-73C605,-73 1400,-73 1400,-73 1406,-73 1412,-79 1412,-85 1412,-85 1412,-862 1412,-862 1412,-868 1406,-874 1400,-874 1400,-874 605,-874 605,-874 599,-874 593,-868 593,-862 593,-862 593,-85 593,-85 593,-79 599,-73 605,-73"/><text x="962.5" y="-858.5" font-family="Roboto" font-size="10" font-weight="bold" text-anchor="start">wger.nutrition</text></g><g id="node1" class="node"><title>wger_config_models_LanguageConfig</title><polygon fill="#fff" stroke="transparent" points="244 -317.5 244 -405.5 456 -405.5 456 -317.5 244 -317.5"/><polygon fill="#1b563f" stroke="transparent" points="245 -383.5 245 -404.5 455 -404.5 455 -383.5 245 -383.5"/><text x="289" y="-392.5" fill="#fff" font-family="Roboto" font-size="10" font-weight="bold" text-anchor="start">LanguageConfig</text><text x="261" y="-376.1" font-family="Roboto" font-size="8" font-weight="bold" text-anchor="start">id</text><text x="368" y="-376.1" font-family="Roboto" font-size="8" font-weight="bold" text-anchor="start">AutoField</text><text x="261" y="-363.1" font-family="Roboto" font-size="8" font-weight="bold" text-anchor="start">language</text><text x="368" y="-363.1" font-family="Roboto" font-size="8" font-weight="bold" text-anchor="start">ForeignKey (id)</text><text x="261" y="-350.1" font-family="Roboto" font-size="8" font-weight="bold" text-anchor="start">language_target</text><text x="368" y="-350.1" font-family="Roboto" font-size="8" font-weight="bold" text-anchor="start">ForeignKey (id)</text><text x="261" y="-337.1" font-family="Roboto" font-size="8" text-anchor="start">item</text><text x="368" y="-337.1" font-family="Roboto" font-size="8" text-anchor="start">CharField</text><text x="261" y="-324.1" font-family="Roboto" font-size="8" text-anchor="start">show</text><text x="368" y="-324.1" font-family="Roboto" font-size="8" text-anchor="start">BooleanField</text><polygon fill="none" stroke="#000" points="244 -317.5 244 -405.5 456 -405.5 456 -317.5 244 -317.5"/></g><g id="node13" class="node"><title>wger_core_models_Language</title><polygon fill="#fff" stroke="transparent" points="499 -99 499 -120 577 -120 577 -99 499 -99"/><polygon fill="#1b563f" stroke="transparent" points="499 -98.5 499 -119.5 577 -119.5 577 -98.5 499 -98.5"/><text x="508" y="-106.9" fill="#fff" font-family="Roboto" font-size="12" text-anchor="start">Language</text></g><g id="edge13" class="edge"><title>wger_config_models_LanguageConfig-&gt;wger_core_models_Language</title><path fill="none" stroke="#000" d="M311.79,-306.14C285.41,-261.3 260.84,-198.39 296,-156 320.26,-126.76 427.5,-116.19 490.79,-112.46"/><ellipse cx="313.96" cy="-309.74" fill="#000" stroke="#000" rx="4" ry="4"/><text x="356.5" y="-163.1" font-family="Roboto" font-size="8" text-anchor="middle">language (language_source)</text></g><g id="edge14" class="edge"><title>wger_config_models_LanguageConfig-&gt;wger_core_models_Language</title><path fill="none" stroke="#000" d="M363.69,-305.41C377.31,-260.4 402.17,-197.64 443,-156 456.19,-142.55 474.14,-132.56 490.89,-125.42"/><ellipse cx="362.49" cy="-309.47" fill="#000" stroke="#000" rx="4" ry="4"/><text x="516" y="-163.1" font-family="Roboto" font-size="8" text-anchor="middle">language_target (language_target)</text></g><g id="node2" class="node"><title>wger_config_models_GymConfig</title><polygon fill="#fff" stroke="transparent" points="16 -337 16 -386 210 -386 210 -337 16 -337"/><polygon fill="#1b563f" stroke="transparent" points="17 -363.5 17 -384.5 209 -384.5 209 -363.5 17 -363.5"/><text x="66.5" y="-372.5" fill="#fff" font-family="Roboto" font-size="10" font-weight="bold" text-anchor="start">GymConfig</text><text x="33" y="-356.1" font-family="Roboto" font-size="8" font-weight="bold" text-anchor="start">id</text><text x="122" y="-356.1" font-family="Roboto" font-size="8" font-weight="bold" text-anchor="start">AutoField</text><text x="33" y="-343.1" fill="#7b7b7b" font-family="Roboto" font-size="8" font-weight="bold" text-anchor="start">default_gym</text><text x="122" y="-343.1" fill="#7b7b7b" font-family="Roboto" font-size="8" font-weight="bold" text-anchor="start">ForeignKey (id)</text><polygon fill="none" stroke="#000" points="16 -337 16 -386 210 -386 210 -337 16 -337"/></g><g id="node14" class="node"><title>wger_gym_models_Gym</title><polygon fill="#fff" stroke="transparent" points="90 -99 90 -120 136 -120 136 -99 90 -99"/><polygon fill="#1b563f" stroke="transparent" points="90 -98.5 90 -119.5 136 -119.5 136 -98.5 90 -98.5"/><text x="99" y="-106.9" fill="#fff" font-family="Roboto" font-size="12" text-anchor="start">Gym</text></g><g id="edge15" class="edge"><title>wger_config_models_GymConfig-&gt;wger_gym_models_Gym</title><path fill="none" stroke="#000" d="M113,-324.77C113,-270.14 113,-167.95 113,-127.56"/><ellipse cx="113" cy="-328.79" fill="#000" stroke="#000" rx="4" ry="4"/><text x="165" y="-163.1" font-family="Roboto" font-size="8" text-anchor="middle">default_gym (gymconfig)</text></g><g id="node3" class="node"><title>wger_utils_models_AbstractSubmissionModel</title><polygon fill="#fff" stroke="transparent" points="683.5 -91.5 683.5 -127.5 902.5 -127.5 902.5 -91.5 683.5 -91.5"/><polygon fill="#1b563f" stroke="transparent" points="685 -105.5 685 -126.5 902 -126.5 902 -105.5 685 -105.5"/><text x="704" y="-114.5" fill="#fff" font-family="Roboto" font-size="10" font-weight="bold" text-anchor="start">AbstractSubmissionModel</text><text x="701" y="-98.1" font-family="Roboto" font-size="8" text-anchor="start">status</text><text x="803" y="-98.1" font-family="Roboto" font-size="8" text-anchor="start">CharField</text><polygon fill="none" stroke="#000" points="683.5 -91.5 683.5 -127.5 902.5 -127.5 902.5 -91.5 683.5 -91.5"/></g><g id="node4" class="node"><title>wger_utils_models_AbstractLicenseModel</title><polygon fill="#fff" stroke="transparent" points="937 -85 937 -134 1135 -134 1135 -85 937 -85"/><polygon fill="#1b563f" stroke="transparent" points="938 -111.5 938 -132.5 1134 -132.5 1134 -111.5 938 -111.5"/><text x="958" y="-120.5" fill="#fff" font-family="Roboto" font-size="10" font-weight="bold" text-anchor="start">AbstractLicenseModel</text><text x="954" y="-104.1" font-family="Roboto" font-size="8" font-weight="bold" text-anchor="start">license</text><text x="1047" y="-104.1" font-family="Roboto" font-size="8" font-weight="bold" text-anchor="start">ForeignKey (id)</text><text x="954" y="-91.1" fill="#7b7b7b" font-family="Roboto" font-size="8" text-anchor="start">license_author</text><text x="1047" y="-91.1" fill="#7b7b7b" font-family="Roboto" font-size="8" text-anchor="start">CharField</text><polygon fill="none" stroke="#000" points="937 -85 937 -134 1135 -134 1135 -85 937 -85"/></g><g id="node15" class="node"><title>wger_core_models_License</title><polygon fill="#fff" stroke="transparent" points="1004 -7.5 1004 -28.5 1068 -28.5 1068 -7.5 1004 -7.5"/><polygon fill="#1b563f" stroke="transparent" points="1004 -7 1004 -28 1068 -28 1068 -7 1004 -7"/><text x="1013" y="-15.4" fill="#fff" font-family="Roboto" font-size="12" text-anchor="start">License</text></g><g id="edge16" class="edge"><title>wger_utils_models_AbstractLicenseModel-&gt;wger_core_models_License</title><path fill="none" stroke="#000" d="M1036,-72.59C1036,-60.01 1036,-46.45 1036,-36.13"/><ellipse cx="1036" cy="-76.67" fill="#000" stroke="#000" rx="4" ry="4"/><text x="1100.5" y="-56.6" font-family="Roboto" font-size="8" text-anchor="middle">license (abstractlicensemodel)</text></g><g id="node5" class="node"><title>wger_nutrition_models_NutritionPlan</title><polygon fill="#fff" stroke="transparent" points="1186 -311 1186 -412 1396 -412 1396 -311 1186 -311"/><polygon fill="#1b563f" stroke="transparent" points="1187 -389.5 1187 -410.5 1395 -410.5 1395 -389.5 1187 -389.5"/><text x="1237.5" y="-398.5" fill="#fff" font-family="Roboto" font-size="10" font-weight="bold" text-anchor="start">NutritionPlan</text><text x="1203" y="-382.1" font-family="Roboto" font-size="8" font-weight="bold" text-anchor="start">id</text><text x="1308" y="-382.1" font-family="Roboto" font-size="8" font-weight="bold" text-anchor="start">AutoField</text><text x="1203" y="-369.1" font-family="Roboto" font-size="8" font-weight="bold" text-anchor="start">language</text><text x="1308" y="-369.1" font-family="Roboto" font-size="8" font-weight="bold" text-anchor="start">ForeignKey (id)</text><text x="1203" y="-356.1" font-family="Roboto" font-size="8" font-weight="bold" text-anchor="start">user</text><text x="1308" y="-356.1" font-family="Roboto" font-size="8" font-weight="bold" text-anchor="start">ForeignKey (id)</text><text x="1203" y="-343.1" fill="#7b7b7b" font-family="Roboto" font-size="8" text-anchor="start">creation_date</text><text x="1308" y="-343.1" fill="#7b7b7b" font-family="Roboto" font-size="8" text-anchor="start">DateField</text><text x="1203" y="-330.1" fill="#7b7b7b" font-family="Roboto" font-size="8" text-anchor="start">description</text><text x="1308" y="-330.1" fill="#7b7b7b" font-family="Roboto" font-size="8" text-anchor="start">CharField</text><text x="1203" y="-317.1" font-family="Roboto" font-size="8" text-anchor="start">has_goal_calories</text><text x="1308" y="-317.1" font-family="Roboto" font-size="8" text-anchor="start">BooleanField</text><polygon fill="none" stroke="#000" points="1186 -311 1186 -412 1396 -412 1396 -311 1186 -311"/></g><g id="edge17" class="edge"><title>wger_nutrition_models_NutritionPlan-&gt;wger_core_models_Language</title><path fill="none" stroke="#000" d="M1263.9,-299.19C1243.6,-261.24 1212,-215.42 1169,-192 1104.1,-156.63 904.87,-203.2 837,-174 826.31,-169.4 828.63,-160.73 818,-156 724.72,-114.52 686.93,-166.85 589,-138 580.7,-135.56 572.22,-131.65 564.62,-127.54"/><ellipse cx="1265.95" cy="-303.12" fill="#000" stroke="#000" rx="4" ry="4"/><text x="888.5" y="-163.1" font-family="Roboto" font-size="8" text-anchor="middle">language (nutritionplan)</text></g><g id="node16" class="node"><title>django_contrib_auth_models_User</title><polygon fill="#fff" stroke="transparent" points="1428 -99 1428 -120 1474 -120 1474 -99 1428 -99"/><polygon fill="#1b563f" stroke="transparent" points="1428 -98.5 1428 -119.5 1474 -119.5 1474 -98.5 1428 -98.5"/><text x="1437" y="-106.9" fill="#fff" font-family="Roboto" font-size="12" text-anchor="start">User</text></g><g id="edge18" class="edge"><title>wger_nutrition_models_NutritionPlan-&gt;django_contrib_auth_models_User</title><path fill="none" stroke="#000" d="M1329.7,-300.1C1365.9,-243.55 1417.6,-162.67 1440,-127.7"/><ellipse cx="1327.48" cy="-303.52" fill="#000" stroke="#000" rx="4" ry="4"/><text x="1461" y="-163.1" font-family="Roboto" font-size="8" text-anchor="middle">user (nutritionplan)</text></g><g id="node6" class="node"><title>wger_nutrition_models_IngredientCategory</title><polygon fill="#fff" stroke="transparent" points="1169.5 -85 1169.5 -134 1352.5 -134 1352.5 -85 1169.5 -85"/><polygon fill="#1b563f" stroke="transparent" points="1171 -111.5 1171 -132.5 1352 -132.5 1352 -111.5 1171 -111.5"/><text x="1190" y="-120.5" fill="#fff" font-family="Roboto" font-size="10" font-weight="bold" text-anchor="start">IngredientCategory</text><text x="1187" y="-104.1" font-family="Roboto" font-size="8" font-weight="bold" text-anchor="start">id</text><text x="1267" y="-104.1" font-family="Roboto" font-size="8" font-weight="bold" text-anchor="start">AutoField</text><text x="1187" y="-91.1" font-family="Roboto" font-size="8" text-anchor="start">name</text><text x="1267" y="-91.1" font-family="Roboto" font-size="8" text-anchor="start">CharField</text><polygon fill="none" stroke="#000" points="1169.5 -85 1169.5 -134 1352.5 -134 1352.5 -85 1169.5 -85"/></g><g id="node7" class="node"><title>wger_nutrition_models_Ingredient</title><polygon fill="#fff" stroke="transparent" points="822.5 -196 822.5 -527 1151.5 -527 1151.5 -196 822.5 -196"/><polygon fill="#1b563f" stroke="transparent" points="824 -495.5 824 -525.5 1151 -525.5 1151 -495.5 824 -495.5"/><text x="953.5" y="-513.5" fill="#fff" font-family="Roboto" font-size="10" font-weight="bold" text-anchor="start">Ingredient</text><text x="829" y="-503.5" fill="#fff" font-family="Roboto" font-size="10" font-weight="bold" text-anchor="start">&lt;</text><text x="838" y="-503.5" fill="#fff" font-family="Roboto" font-size="10" font-style="italic" font-weight="bold" text-anchor="start">AbstractSubmissionModel,AbstractLicenseModel</text><text x="1115" y="-503.5" fill="#fff" font-family="Roboto" font-size="10" font-weight="bold" text-anchor="start">&gt;</text><text x="840" y="-488.1" font-family="Roboto" font-size="8" font-weight="bold" text-anchor="start">id</text><text x="1011" y="-488.1" font-family="Roboto" font-size="8" font-weight="bold" text-anchor="start">AutoField</text><text x="840" y="-475.1" fill="#7b7b7b" font-family="Roboto" font-size="8" font-weight="bold" text-anchor="start">category</text><text x="1011" y="-475.1" fill="#7b7b7b" font-family="Roboto" font-size="8" font-weight="bold" text-anchor="start">ForeignKey (id)</text><text x="840" y="-462.1" font-family="Roboto" font-size="8" font-weight="bold" text-anchor="start">language</text><text x="1011" y="-462.1" font-family="Roboto" font-size="8" font-weight="bold" text-anchor="start">ForeignKey (id)</text><text x="840" y="-449.1" font-family="Roboto" font-size="8" font-style="italic" font-weight="bold" text-anchor="start">license</text><text x="1011" y="-449.1" font-family="Roboto" font-size="8" font-style="italic" font-weight="bold" text-anchor="start">ForeignKey (id)</text><text x="840" y="-436.1" fill="#7b7b7b" font-family="Roboto" font-size="8" text-anchor="start">brand</text><text x="1011" y="-436.1" fill="#7b7b7b" font-family="Roboto" font-size="8" text-anchor="start">CharField</text><text x="840" y="-423.1" font-family="Roboto" font-size="8" text-anchor="start">carbohydrates</text><text x="1011" y="-423.1" font-family="Roboto" font-size="8" text-anchor="start">DecimalField</text><text x="840" y="-410.1" fill="#7b7b7b" font-family="Roboto" font-size="8" text-anchor="start">carbohydrates_sugar</text><text x="1011" y="-410.1" fill="#7b7b7b" font-family="Roboto" font-size="8" text-anchor="start">DecimalField</text><text x="840" y="-397.1" fill="#7b7b7b" font-family="Roboto" font-size="8" text-anchor="start">code</text><text x="1011" y="-397.1" fill="#7b7b7b" font-family="Roboto" font-size="8" text-anchor="start">CharField</text><text x="840" y="-384.1" fill="#7b7b7b" font-family="Roboto" font-size="8" text-anchor="start">common_name</text><text x="1011" y="-384.1" fill="#7b7b7b" font-family="Roboto" font-size="8" text-anchor="start">CharField</text><text x="840" y="-371.1" fill="#7b7b7b" font-family="Roboto" font-size="8" text-anchor="start">creation_date</text><text x="1011" y="-371.1" fill="#7b7b7b" font-family="Roboto" font-size="8" text-anchor="start">DateField</text><text x="840" y="-358.1" font-family="Roboto" font-size="8" text-anchor="start">energy</text><text x="1011" y="-358.1" font-family="Roboto" font-size="8" text-anchor="start">IntegerField</text><text x="840" y="-345.1" font-family="Roboto" font-size="8" text-anchor="start">fat</text><text x="1011" y="-345.1" font-family="Roboto" font-size="8" text-anchor="start">DecimalField</text><text x="840" y="-332.1" fill="#7b7b7b" font-family="Roboto" font-size="8" text-anchor="start">fat_saturated</text><text x="1011" y="-332.1" fill="#7b7b7b" font-family="Roboto" font-size="8" text-anchor="start">DecimalField</text><text x="840" y="-319.1" fill="#7b7b7b" font-family="Roboto" font-size="8" text-anchor="start">fibres</text><text x="1011" y="-319.1" fill="#7b7b7b" font-family="Roboto" font-size="8" text-anchor="start">DecimalField</text><text x="840" y="-306.1" fill="#7b7b7b" font-family="Roboto" font-size="8" text-anchor="start">last_imported</text><text x="1011" y="-306.1" fill="#7b7b7b" font-family="Roboto" font-size="8" text-anchor="start">DateTimeField</text><text x="840" y="-293.1" fill="#7b7b7b" font-family="Roboto" font-size="8" font-style="italic" text-anchor="start">license_author</text><text x="1011" y="-293.1" fill="#7b7b7b" font-family="Roboto" font-size="8" font-style="italic" text-anchor="start">CharField</text><text x="840" y="-280.1" font-family="Roboto" font-size="8" text-anchor="start">name</text><text x="1011" y="-280.1" font-family="Roboto" font-size="8" text-anchor="start">CharField</text><text x="840" y="-267.1" font-family="Roboto" font-size="8" text-anchor="start">protein</text><text x="1011" y="-267.1" font-family="Roboto" font-size="8" text-anchor="start">DecimalField</text><text x="840" y="-254.1" fill="#7b7b7b" font-family="Roboto" font-size="8" text-anchor="start">sodium</text><text x="1011" y="-254.1" fill="#7b7b7b" font-family="Roboto" font-size="8" text-anchor="start">DecimalField</text><text x="840" y="-241.1" fill="#7b7b7b" font-family="Roboto" font-size="8" text-anchor="start">source_name</text><text x="1011" y="-241.1" fill="#7b7b7b" font-family="Roboto" font-size="8" text-anchor="start">CharField</text><text x="840" y="-228.1" fill="#7b7b7b" font-family="Roboto" font-size="8" text-anchor="start">source_url</text><text x="1011" y="-228.1" fill="#7b7b7b" font-family="Roboto" font-size="8" text-anchor="start">URLField</text><text x="840" y="-215.1" font-family="Roboto" font-size="8" font-style="italic" text-anchor="start">status</text><text x="1011" y="-215.1" font-family="Roboto" font-size="8" font-style="italic" text-anchor="start">CharField</text><text x="840" y="-202.1" fill="#7b7b7b" font-family="Roboto" font-size="8" text-anchor="start">update_date</text><text x="1011" y="-202.1" fill="#7b7b7b" font-family="Roboto" font-size="8" text-anchor="start">DateField</text><polygon fill="none" stroke="#000" points="822.5 -196 822.5 -527 1151.5 -527 1151.5 -196 822.5 -196"/></g><g id="edge1" class="edge"><title>wger_nutrition_models_Ingredient-&gt;wger_utils_models_AbstractSubmissionModel</title><path fill="none" stroke="#000" d="M967.55,-191.75C961.42,-178.72 953.69,-166.56 944,-156 936.77,-148.12 919.89,-140.81 899.92,-134.46"/><polygon fill="none" stroke="#000" points="900.81 -131.07 890.22 -131.52 898.77 -137.77 900.81 -131.07"/><text x="980.5" y="-167.6" font-family="Roboto" font-size="8" text-anchor="middle">abstract</text><text x="980.5" y="-158.6" font-family="Roboto" font-size="8" text-anchor="middle">inheritance</text></g><g id="edge2" class="edge"><title>wger_nutrition_models_Ingredient-&gt;wger_utils_models_AbstractLicenseModel</title><path fill="none" stroke="#000" d="M1020.1,-191.67C1023.2,-175.63 1026.2,-160.7 1028.6,-148.13"/><polygon fill="none" stroke="#000" points="1032.07 -148.64 1030.6 -138.15 1025.2 -147.27 1032.07 -148.64"/><text x="1049.5" y="-167.6" font-family="Roboto" font-size="8" text-anchor="middle">abstract</text><text x="1049.5" y="-158.6" font-family="Roboto" font-size="8" text-anchor="middle">inheritance</text></g><g id="edge3" class="edge"><title>wger_nutrition_models_Ingredient-&gt;wger_nutrition_models_IngredientCategory</title><path fill="none" stroke="#000" d="M1165.9,-194.84C1166.9,-193.89 1168,-192.94 1169,-192 1188.9,-173.95 1211.5,-153.93 1229.3,-138.24"/><ellipse cx="1162.78" cy="-197.65" fill="#000" stroke="#000" rx="4" ry="4"/><text x="1253.5" y="-163.1" font-family="Roboto" font-size="8" text-anchor="middle">category (ingredient)</text></g><g id="edge19" class="edge"><title>wger_nutrition_models_Ingredient-&gt;wger_core_models_Language</title><path fill="none" stroke="#000" d="M807.03,-192.55C806.69,-192.36 806.34,-192.18 806,-192 773.77,-174.99 759.93,-187.3 726,-174 711.17,-168.18 709.98,-161.42 695,-156 650.06,-139.74 634.19,-153.55 589,-138 581.2,-135.32 573.16,-131.53 565.84,-127.62"/><ellipse cx="810.72" cy="-194.58" fill="#000" stroke="#000" rx="4" ry="4"/><text x="772" y="-163.1" font-family="Roboto" font-size="8" text-anchor="middle">language (ingredient)</text></g><g id="node8" class="node"><title>wger_nutrition_models_WeightUnit</title><polygon fill="#fff" stroke="transparent" points="609 -330.5 609 -392.5 789 -392.5 789 -330.5 609 -330.5"/><polygon fill="#1b563f" stroke="transparent" points="610 -370.5 610 -391.5 788 -391.5 788 -370.5 610 -370.5"/><text x="651.5" y="-379.5" fill="#fff" font-family="Roboto" font-size="10" font-weight="bold" text-anchor="start">WeightUnit</text><text x="626" y="-363.1" font-family="Roboto" font-size="8" font-weight="bold" text-anchor="start">id</text><text x="701" y="-363.1" font-family="Roboto" font-size="8" font-weight="bold" text-anchor="start">AutoField</text><text x="626" y="-350.1" font-family="Roboto" font-size="8" font-weight="bold" text-anchor="start">language</text><text x="701" y="-350.1" font-family="Roboto" font-size="8" font-weight="bold" text-anchor="start">ForeignKey (id)</text><text x="626" y="-337.1" font-family="Roboto" font-size="8" text-anchor="start">name</text><text x="701" y="-337.1" font-family="Roboto" font-size="8" text-anchor="start">CharField</text><polygon fill="none" stroke="#000" points="609 -330.5 609 -392.5 789 -392.5 789 -330.5 609 -330.5"/></g><g id="edge20" class="edge"><title>wger_nutrition_models_WeightUnit-&gt;wger_core_models_Language</title><path fill="none" stroke="#000" d="M680.67,-318.88C660.69,-275.88 626.16,-207.91 586,-156 578.13,-145.83 567.96,-135.85 559.01,-127.84"/><ellipse cx="682.44" cy="-322.72" fill="#000" stroke="#000" rx="4" ry="4"/><text x="644" y="-163.1" font-family="Roboto" font-size="8" text-anchor="middle">language (weightunit)</text></g><g id="node9" class="node"><title>wger_nutrition_models_IngredientWeightUnit</title><polygon fill="#fff" stroke="transparent" points="785 -580 785 -668 979 -668 979 -580 785 -580"/><polygon fill="#1b563f" stroke="transparent" points="786 -646 786 -667 978 -667 978 -646 786 -646"/><text x="805" y="-655" fill="#fff" font-family="Roboto" font-size="10" font-weight="bold" text-anchor="start">IngredientWeightUnit</text><text x="802" y="-638.6" font-family="Roboto" font-size="8" font-weight="bold" text-anchor="start">id</text><text x="887" y="-638.6" font-family="Roboto" font-size="8" font-weight="bold" text-anchor="start">AutoField</text><text x="802" y="-625.6" font-family="Roboto" font-size="8" font-weight="bold" text-anchor="start">ingredient</text><text x="887" y="-625.6" font-family="Roboto" font-size="8" font-weight="bold" text-anchor="start">ForeignKey (id)</text><text x="802" y="-612.6" font-family="Roboto" font-size="8" font-weight="bold" text-anchor="start">unit</text><text x="887" y="-612.6" font-family="Roboto" font-size="8" font-weight="bold" text-anchor="start">ForeignKey (id)</text><text x="802" y="-599.6" font-family="Roboto" font-size="8" text-anchor="start">amount</text><text x="887" y="-599.6" font-family="Roboto" font-size="8" text-anchor="start">DecimalField</text><text x="802" y="-586.6" font-family="Roboto" font-size="8" text-anchor="start">gram</text><text x="887" y="-586.6" font-family="Roboto" font-size="8" text-anchor="start">IntegerField</text><polygon fill="none" stroke="#000" points="785 -580 785 -668 979 -668 979 -580 785 -580"/></g><g id="edge4" class="edge"><title>wger_nutrition_models_IngredientWeightUnit-&gt;wger_nutrition_models_Ingredient</title><path fill="none" stroke="#000" d="M904.1,-568.16C908.68,-556.81 913.72,-544.29 919,-531.21"/><ellipse cx="902.5" cy="-572.12" fill="#000" stroke="#000" rx="4" ry="4"/><text x="979.5" y="-551.6" font-family="Roboto" font-size="8" text-anchor="middle">ingredient (ingredientweightunit)</text></g><g id="edge5" class="edge"><title>wger_nutrition_models_IngredientWeightUnit-&gt;wger_nutrition_models_WeightUnit</title><path fill="none" stroke="#000" d="M805.39,-570.26C801.34,-566.32 797.51,-562.22 794,-558 752.87,-508.52 724.39,-438.23 709.95,-396.8"/><ellipse cx="808.54" cy="-573.2" fill="#000" stroke="#000" rx="4" ry="4"/><text x="850" y="-551.6" font-family="Roboto" font-size="8" text-anchor="middle">unit (ingredientweightunit)</text></g><g id="node10" class="node"><title>wger_nutrition_models_Meal</title><polygon fill="#fff" stroke="transparent" points="1236.5 -586.5 1236.5 -661.5 1395.5 -661.5 1395.5 -586.5 1236.5 -586.5"/><polygon fill="#1b563f" stroke="transparent" points="1238 -639 1238 -660 1395 -660 1395 -639 1238 -639"/><text x="1287" y="-648" fill="#fff" font-family="Roboto" font-size="10" font-weight="bold" text-anchor="start">Meal</text><text x="1254" y="-631.6" font-family="Roboto" font-size="8" font-weight="bold" text-anchor="start">id</text><text x="1308" y="-631.6" font-family="Roboto" font-size="8" font-weight="bold" text-anchor="start">AutoField</text><text x="1254" y="-618.6" font-family="Roboto" font-size="8" font-weight="bold" text-anchor="start">plan</text><text x="1308" y="-618.6" font-family="Roboto" font-size="8" font-weight="bold" text-anchor="start">ForeignKey (id)</text><text x="1254" y="-605.6" fill="#7b7b7b" font-family="Roboto" font-size="8" text-anchor="start">order</text><text x="1308" y="-605.6" fill="#7b7b7b" font-family="Roboto" font-size="8" text-anchor="start">IntegerField</text><text x="1254" y="-592.6" fill="#7b7b7b" font-family="Roboto" font-size="8" text-anchor="start">time</text><text x="1308" y="-592.6" fill="#7b7b7b" font-family="Roboto" font-size="8" text-anchor="start">Html5TimeField</text><polygon fill="none" stroke="#000" points="1236.5 -586.5 1236.5 -661.5 1395.5 -661.5 1395.5 -586.5 1236.5 -586.5"/></g><g id="edge6" class="edge"><title>wger_nutrition_models_Meal-&gt;wger_nutrition_models_NutritionPlan</title><path fill="none" stroke="#000" d="M1311.3,-574.15C1307,-529.13 1300.6,-462.45 1296.1,-416"/><ellipse cx="1311.71" cy="-578.32" fill="#000" stroke="#000" rx="4" ry="4"/><text x="1333.5" y="-551.6" font-family="Roboto" font-size="8" text-anchor="middle">plan (meal)</text></g><g id="node11" class="node"><title>wger_nutrition_models_MealItem</title><polygon fill="#fff" stroke="transparent" points="1023 -727.5 1023 -828.5 1215 -828.5 1215 -727.5 1023 -727.5"/><polygon fill="#1b563f" stroke="transparent" points="1024 -806 1024 -827 1214 -827 1214 -806 1024 -806"/><text x="1077" y="-815" fill="#fff" font-family="Roboto" font-size="10" font-weight="bold" text-anchor="start">MealItem</text><text x="1040" y="-798.6" font-family="Roboto" font-size="8" font-weight="bold" text-anchor="start">id</text><text x="1127" y="-798.6" font-family="Roboto" font-size="8" font-weight="bold" text-anchor="start">AutoField</text><text x="1040" y="-785.6" font-family="Roboto" font-size="8" font-weight="bold" text-anchor="start">ingredient</text><text x="1127" y="-785.6" font-family="Roboto" font-size="8" font-weight="bold" text-anchor="start">ForeignKey (id)</text><text x="1040" y="-772.6" font-family="Roboto" font-size="8" font-weight="bold" text-anchor="start">meal</text><text x="1127" y="-772.6" font-family="Roboto" font-size="8" font-weight="bold" text-anchor="start">ForeignKey (id)</text><text x="1040" y="-759.6" fill="#7b7b7b" font-family="Roboto" font-size="8" font-weight="bold" text-anchor="start">weight_unit</text><text x="1127" y="-759.6" fill="#7b7b7b" font-family="Roboto" font-size="8" font-weight="bold" text-anchor="start">ForeignKey (id)</text><text x="1040" y="-746.6" font-family="Roboto" font-size="8" text-anchor="start">amount</text><text x="1127" y="-746.6" font-family="Roboto" font-size="8" text-anchor="start">DecimalField</text><text x="1040" y="-733.6" fill="#7b7b7b" font-family="Roboto" font-size="8" text-anchor="start">order</text><text x="1127" y="-733.6" fill="#7b7b7b" font-family="Roboto" font-size="8" text-anchor="start">IntegerField</text><polygon fill="none" stroke="#000" points="1023 -727.5 1023 -828.5 1215 -828.5 1215 -727.5 1023 -727.5"/></g><g id="edge7" class="edge"><title>wger_nutrition_models_MealItem-&gt;wger_nutrition_models_Ingredient</title><path fill="none" stroke="#000" d="M1113.7,-715.05C1109.1,-674.78 1101,-621.51 1087,-576 1082.5,-561.23 1077.1,-546.17 1071.2,-531.24"/><ellipse cx="1114.16" cy="-719.2" fill="#000" stroke="#000" rx="4" ry="4"/><text x="1152.5" y="-622.1" font-family="Roboto" font-size="8" text-anchor="middle">ingredient (mealitem)</text></g><g id="edge8" class="edge"><title>wger_nutrition_models_MealItem-&gt;wger_nutrition_models_IngredientWeightUnit</title><path fill="none" stroke="#000" d="M1028.7,-719.06C1004.4,-703.52 978.53,-686.91 955.35,-672.04"/><ellipse cx="1032.05" cy="-721.23" fill="#000" stroke="#000" rx="4" ry="4"/><text x="1041.5" y="-692.6" font-family="Roboto" font-size="8" text-anchor="middle">weight_unit (mealitem)</text></g><g id="edge9" class="edge"><title>wger_nutrition_models_MealItem-&gt;wger_nutrition_models_Meal</title><path fill="none" stroke="#000" d="M1194.8,-718.48C1217.7,-700.85 1242.3,-681.89 1263.3,-665.69"/><ellipse cx="1191.65" cy="-720.94" fill="#000" stroke="#000" rx="4" ry="4"/><text x="1264" y="-692.6" font-family="Roboto" font-size="8" text-anchor="middle">meal (mealitem)</text></g><g id="node12" class="node"><title>wger_nutrition_models_LogItem</title><polygon fill="#fff" stroke="transparent" points="712 -721 712 -835 904 -835 904 -721 712 -721"/><polygon fill="#1b563f" stroke="transparent" points="713 -813 713 -834 903 -834 903 -813 713 -813"/><text x="769.5" y="-822" fill="#fff" font-family="Roboto" font-size="10" font-weight="bold" text-anchor="start">LogItem</text><text x="729" y="-805.6" font-family="Roboto" font-size="8" font-weight="bold" text-anchor="start">id</text><text x="816" y="-805.6" font-family="Roboto" font-size="8" font-weight="bold" text-anchor="start">AutoField</text><text x="729" y="-792.6" font-family="Roboto" font-size="8" font-weight="bold" text-anchor="start">ingredient</text><text x="816" y="-792.6" font-family="Roboto" font-size="8" font-weight="bold" text-anchor="start">ForeignKey (id)</text><text x="729" y="-779.6" font-family="Roboto" font-size="8" font-weight="bold" text-anchor="start">plan</text><text x="816" y="-779.6" font-family="Roboto" font-size="8" font-weight="bold" text-anchor="start">ForeignKey (id)</text><text x="729" y="-766.6" fill="#7b7b7b" font-family="Roboto" font-size="8" font-weight="bold" text-anchor="start">weight_unit</text><text x="816" y="-766.6" fill="#7b7b7b" font-family="Roboto" font-size="8" font-weight="bold" text-anchor="start">ForeignKey (id)</text><text x="729" y="-753.6" font-family="Roboto" font-size="8" text-anchor="start">amount</text><text x="816" y="-753.6" font-family="Roboto" font-size="8" text-anchor="start">DecimalField</text><text x="729" y="-740.6" fill="#7b7b7b" font-family="Roboto" font-size="8" text-anchor="start">comment</text><text x="816" y="-740.6" fill="#7b7b7b" font-family="Roboto" font-size="8" text-anchor="start">TextField</text><text x="729" y="-727.6" font-family="Roboto" font-size="8" text-anchor="start">datetime</text><text x="816" y="-727.6" font-family="Roboto" font-size="8" text-anchor="start">DateTimeField</text><polygon fill="none" stroke="#000" points="712 -721 712 -835 904 -835 904 -721 712 -721"/></g><g id="edge10" class="edge"><title>wger_nutrition_models_LogItem-&gt;wger_nutrition_models_NutritionPlan</title><path fill="none" stroke="#000" d="M920.03,-760.9C957.15,-749.75 994.9,-730.88 1018,-699 1026,-687.93 1014.7,-586.84 1023,-576 1043.7,-549.1 1141.4,-550.77 1169,-531 1210.4,-501.35 1243.2,-453.24 1264.3,-416.01"/><ellipse cx="915.96" cy="-762.07" fill="#000" stroke="#000" rx="4" ry="4"/><text x="1053" y="-622.1" font-family="Roboto" font-size="8" text-anchor="middle">plan (logitem)</text></g><g id="edge11" class="edge"><title>wger_nutrition_models_LogItem-&gt;wger_nutrition_models_Ingredient</title><path fill="none" stroke="#000" d="M711.24,-710.98C700.24,-699.31 690.62,-686.27 684,-672 666.06,-633.29 659.6,-611 684,-576 684.52,-575.26 805.23,-531.47 806,-531 808.83,-529.26 811.66,-527.46 814.48,-525.63"/><ellipse cx="714.31" cy="-714.1" fill="#000" stroke="#000" rx="4" ry="4"/><text x="726" y="-622.1" font-family="Roboto" font-size="8" text-anchor="middle">ingredient (logitem)</text></g><g id="edge12" class="edge"><title>wger_nutrition_models_LogItem-&gt;wger_nutrition_models_IngredientWeightUnit</title><path fill="none" stroke="#000" d="M803.4,-708.45C804.56,-702.05 806.36,-695.8 809,-690 811.88,-683.67 815.72,-677.7 820.12,-672.13"/><ellipse cx="802.81" cy="-712.64" fill="#000" stroke="#000" rx="4" ry="4"/><text x="853.5" y="-692.6" font-family="Roboto" font-size="8" text-anchor="middle">weight_unit (logitem)</text></g></g></svg>